# xmcd
#
# Track frame offsets:
#	150
#	48005
#	96506
#	220689
#
# Disc length: 3501 seconds
#
# Revision: 1
# Processed by: cddbd v1.5.1PL0 Copyright (c) Steve Scherf et al.
# Submitted via: audiograbber 1.83.01
#
DISCID=2e0dab04
DTITLE=Jimi Hendrix - Am I Blue [CD 1)
DYEAR=1900
DGENRE=Blues
TTITLE0=Lord I Sing The Blues for You and Me
TTITLE1=Country Blues
TTITLE2=Villanova Junction Blues
TTITLE3=Stray Blues
EXTD=
EXTT0=
EXTT1=
EXTT2=
EXTT3=
PLAYORDER=
